<svg xmlns="http://www.w3.org/2000/svg" width="41.146" height="41.146" viewBox="0 0 41.146 41.146">
  <path id="Icon_ionic-ios-checkmark-circle" data-name="Icon ionic-ios-checkmark-circle" d="M23.948,3.375A20.573,20.573,0,1,0,44.521,23.948,20.57,20.57,0,0,0,23.948,3.375ZM34.482,18.261,21.258,31.544h-.01a1.786,1.786,0,0,1-1.147.544,1.732,1.732,0,0,1-1.157-.564L13.4,25.986a.394.394,0,0,1,0-.564l1.761-1.761a.382.382,0,0,1,.554,0l4.392,4.392L32.177,15.9a.391.391,0,0,1,.277-.119h0a.359.359,0,0,1,.277.119l1.731,1.79A.39.39,0,0,1,34.482,18.261Z" transform="translate(-3.375 -3.375)" fill="#00ff80"/>
</svg>
